inDegrees=yes
name=ik_lifting_orientations
DataType=double
version=3
OpenSimVersion=4.5-2024-01-10-34fd6af
endheader
time	pelvis_tilt	pelvis_list	pelvis_rotation	pelvis_tx	pelvis_ty	pelvis_tz	hip_flexion_r	hip_adduction_r	hip_rotation_r	knee_angle_r	knee_angle_r_beta	ankle_angle_r	subtalar_angle_r	mtp_angle_r	hip_flexion_l	hip_adduction_l	hip_rotation_l	knee_angle_l	knee_angle_l_beta	ankle_angle_l	subtalar_angle_l	mtp_angle_l	lumbar_extension	lumbar_bending	lumbar_rotation	arm_flex_r	arm_add_r	arm_rot_r	elbow_flex_r	pro_sup_r	wrist_flex_r	wrist_dev_r	arm_flex_l	arm_add_l	arm_rot_l	elbow_flex_l	pro_sup_l	wrist_flex_l	wrist_dev_l
0.02	0.0152876228881568	-0.003411921621455989	20.33194827505871	0	0.9399999998679526	0	44.83006912073105	-10.02360583781778	0	60.20702481278147	1.050810815812959	-4.980264761903248	0	0	44.83006912073105	-10.02360583781778	0	60.20702481278147	1.050810815812959	-4.980264761903248	0	0	-0.01658099128121792	0.001511643963294477	0.001273221124323649	-0.4720265791875146	-0.09347007554148026	-0.006153184462957075	0.9883300435931499	-0.1048952627106299	0	0	0	-13.47532093305587	0	90.18621184206467	-0.1048952627106299	0	0
0.03	-1.884944991361302	-0.5667560402745656	20.30907664145492	0	0.9399999998679526	0	44.83019245592387	-10.02354637085158	0	60.20690668785174	1.050808754144007	-4.980329470481987	0	0	44.83019245592387	-10.02354637085158	0	60.20690668785174	1.050808754144007	-4.980329470481987	0	0	1.058041334329981	-1.639783684578181	0.8513029540895447	0.7061759636293949	1.453983382787957	-0.860990540870831	0.4673145792025856	-0.1048422902388753	0	0	0	-13.47588861490271	0	90.18611767132253	-0.1048422902388753	0	0
0.04	-2.687447180622654	-0.408062353336232	21.68508931539862	0	0.9399999998679526	0	44.83034588637572	-10.02347233164672	0	60.20675998720101	1.050806193734637	-4.980410021188675	0	0	44.83034588637572	-10.02347233164672	0	60.20675998720101	1.050806193734637	-4.980410021188675	0	0	-0.6236379007880272	-3.180975781875683	-0.4646140940585092	3.019180646601832	2.540386570371991	-1.06263218356673	0.4874629737292043	-0.1047764246873129	0	0	0	-13.47659414524395	0	90.18600058016658	-0.1047764246873129	0	0
0.05	-3.72187173590219	-1.57296858633982	22.13061838046722	0	0.9399999998679526	0	44.83043926620378	-10.02342733592412	0	60.20667068711475	1.050804635154109	-4.980458944627095	0	0	44.83043926620378	-10.02342733592412	0	60.20667068711475	1.050804635154109	-4.980458944627095	0	0	-0.1035949085083804	-4.50027383734451	-0.8352111477793133	3.40202309083275	3.993568244673719	-1.309912621107651	0.9168706547805018	-0.1047363300171038	0	0	0	-13.47702368292312	0	90.18592930267562	-0.1047363300171038	0	0
0.06	-5.341049487014617	-0.8823082451667608	23.01572007992479	0	0.9399999998679526	0	44.83060028915583	-10.02334988922113	0	60.20651669243281	1.050801947439879	-4.980543082338452	0	0	44.83060028915583	-10.02334988922113	0	60.20651669243281	1.050801947439879	-4.980543082338452	0	0	0.07701947196104951	-7.302920767135213	-1.013424624044513	4.379890462026307	5.140046816518618	-2.276624766484487	0.7661150943732026	-0.104667177845722	0	0	0	-13.47776459319736	0	90.18580636879901	-0.104667177845722	0	0
0.07000000000000001	-6.393465217271287	-2.055061040026064	23.414276793991	0	0.9399999998679526	0	44.83072590420046	-10.02328961986405	0	60.20639652866161	1.05079985018643	-4.980608492400942	0	0	44.83072590420046	-10.02328961986405	0	60.20639652866161	1.05079985018643	-4.980608492400942	0	0	-0.9072307861399229	-8.77576742049043	-0.4211736429273321	6.871047749435917	6.750572787987612	-4.459120477287663	0.4471941899847264	-0.1046132158182621	0	0	0	-13.47834285250098	0	90.18571043889487	-0.1046132158182621	0	0
0.08	-7.997272446110505	-1.414704021961972	24.32339073196049	0	0.9399999998679526	0	44.83091203079103	-10.02320042621698	0	60.20621853540542	1.050796743618063	-4.98070522923462	0	0	44.83091203079103	-10.02320042621698	0	60.20621853540542	1.050796743618063	-4.98070522923462	0	0	-1.756627411816983	-11.89324535019376	-1.216746144522669	8.787665779321875	8.591930492558516	-5.265164040538158	0.4593744094243465	-0.1045332538024913	0	0	0	-13.47919974176954	0	90.18556828803719	-0.1045332538024913	0	0
0.09	-9.001770242383611	-2.604080336288793	24.69502882554912	0	0.9399999998679526	0	44.83105485977958	-10.02313223778349	0	60.20608182579505	1.050794357585243	-4.98077908109701	0	0	44.83105485977958	-10.02313223778349	0	60.20608182579505	1.050794357585243	-4.98077908109701	0	0	-3.304406088442457	-12.40229287158752	-1.145629350238976	12.0169029152109	9.722979091014446	-6.630265837798445	0.1690794284325165	-0.1044718573281799	0	0	0	-13.47985793486476	0	90.18545914169736	-0.1044718573281799	0	0
0.1	-10.62917319249574	-2.009115643868098	25.60077494061794	0	0.9399999998679526	0	44.83111625103571	-10.02310289590491	0	60.20602305123462	1.050793331775647	-4.980810876686752	0	0	44.83111625103571	-10.02310289590491	0	60.20602305123462	1.050793331775647	-4.980810876686752	0	0	-4.299244769688515	-14.42299206827718	-1.337809541045199	14.08650820222733	10.01697627126078	-8.096401406951255	0.1401243835358893	-0.1044454657965759	0	0	0	-13.48014091021226	0	90.18541222468635	-0.1044454657965759	0	0
0.11	-12.26323725754857	-1.435218272681862	26.52185104364666	0	0.9399999998679526	0	44.83126700918545	-10.02303148826682	0	60.20587822230536	1.050790804033979	-4.980888031271744	0	0	44.83126700918545	-10.02303148826682	0	60.20587822230536	1.050790804033979	-4.980888031271744	0	0	-4.857534750405285	-16.14989941199271	-2.305824594540036	16.66410968254135	10.04268018907393	-8.648792835648324	0.08256208020121356	-0.1043805489620006	0	0	0	-13.48083777924345	0	90.18529682010272	-0.1043805489620006	0	0
0.12	-13.65074517778737	-1.30403828573959	26.88381821287406	0	0.9399999998679526	0	44.83203491940089	-10.02277347514135	0	60.20495705540279	1.050774726638569	-4.981146252883848	0	0	44.83203491940089	-10.02277347514135	0	60.20495705540279	1.050774726638569	-4.981146252883848	0	0	-6.806055270515849	-17.96382733658394	-2.608615042655213	19.69770901291755	10.90188828897587	-9.492928045205321	0.08276119144733007	-0.1040187307660077	0	0	0	-13.48500982208876	0	90.18465360667017	-0.1040187307660077	0	0
0.13	-14.75496206232807	-0.3198029991256939	27.06864592689215	0	0.9399999998679526	0	44.83211611545038	-10.02273501092766	0	60.20487936017269	1.050773370600991	-4.981187787402988	0	0	44.83211611545038	-10.02273501092766	0	60.20487936017269	1.050773370600991	-4.981187787402988	0	0	-8.253122572747076	-18.42583027396698	-2.511826568913363	21.87170924854984	9.911890579546091	-10.82442373192303	0.06205261371893332	-0.1039837851541479	0	0	0	-13.48538477127002	0	90.1845914828185	-0.1039837851541479	0	0
0.14	-15.96452273394866	0.9772614284247023	28.48229157351098	0	0.9399999998679526	0	44.83327632749928	-10.02234575564932	0	60.20350296479737	1.050749347969882	-4.981575908202957	0	0	44.83327632749928	-10.02234575564932	0	60.20350296479737	1.050749347969882	-4.981575908202957	0	0	-10.78775426612346	-19.28158853719404	-3.193990726022162	24.20951878080321	8.340372089885443	-12.37472838392315	0.05541871379276345	-0.1034381238655576	0	0	0	-13.49166557310193	0	90.18362144677955	-0.1034381238655576	0	0
0.15	-17.81655985021954	0.288749245150446	28.40702230689276	0	0.9399999998679526	0	44.83333163353316	-10.02231990361493	0	60.20344994327733	1.050748422569783	-4.981603701358774	0	0	44.83333163353316	-10.02231990361493	0	60.20344994327733	1.050748422569783	-4.981603701358774	0	0	-10.95114739579213	-20.40333080736666	-2.563908959113873	26.66607717740659	8.06282772839393	-13.6729372003039	0.06288648021395067	-0.1034142634241897	0	0	0	-13.49192202287457	0	90.18357902936772	-0.1034142634241897	0	0
0.16	-17.63386095383822	1.455320302175708	29.46768612968867	0	0.9399999998679526	0	44.83343273322767	-10.02227257544753	0	60.20335321873623	1.050746734408073	-4.981654583555941	0	0	44.83343273322767	-10.02227257544753	0	60.20335321873623	1.050746734408073	-4.981654583555941	0	0	-13.95274725890258	-20.1822964610898	-3.440872277210434	28.49568037922132	6.835937952445128	-14.25184725491328	0.06312119373557318	-0.1033706763754297	0	0	0	-13.49239020163856	0	90.18350154338152	-0.1033706763754297	0	0
0.17	-19.06195797367099	1.551877504361968	29.89006957494039	0	0.9399999998679526	0	44.83349376892637	-10.02224407831072	0	60.20329474768162	1.050745713895653	-4.981685196763386	0	0	44.83349376892637	-10.02224407831072	0	60.20329474768162	1.050745713895653	-4.981685196763386	0	0	-14.47842652077621	-20.07228214656266	-2.318514248034372	29.86086692716131	4.752908732146584	-15.89195846722742	0.05611284644582367	-0.1033443460454202	0	0	0	-13.49267315919185	0	90.1834547351756	-0.1033443460454202	0	0
0.18	-20.17671249200444	2.484086072007936	30.10404164723662	0	0.9399999998679526	0	44.83356996685811	-10.02220856077074	0	60.20322171487083	1.050744439232643	-4.981723329380961	0	0	44.83356996685811	-10.02220856077074	0	60.20322171487083	1.050744439232643	-4.981723329380961	0	0	-16.60271229758212	-20.77570279877689	-1.842803949093291	33.01517450017442	3.522364994707856	-16.99786318506319	0.05789475754367079	-0.10331146530395	0	0	0	-13.49302658435695	0	90.18339628210998	-0.10331146530395	0	0
0.19	-20.89175931564325	4.177990843022836	30.81547329611277	0	0.9399999998679526	0	44.83362681219487	-10.0221821439923	0	60.20316713396232	1.050743486616081	-4.981751668548442	0	0	44.83362681219487	-10.0221821439923	0	60.20316713396232	1.050743486616081	-4.981751668548442	0	0	-18.17410881008943	-21.2434292744268	-1.956212513182699	33.890336980602	1.843559326956142	-17.66095093894259	0.05775691721590183	-0.1032869166571521	0	0	0	-13.49329061633967	0	90.18335264125616	-0.1032869166571521	0	0
0.2	-21.2680230835254	6.670608371919259	32.10123530327085	0	0.9399999998679526	0	44.83371867350221	-10.02213956932028	0	60.20307882787539	1.050741945384114	-4.981797303493482	0	0	44.83371867350221	-10.02213956932028	0	60.20307882787539	1.050741945384114	-4.981797303493482	0	0	-22.66381953693394	-22.720561933918	-3.969143929726043	37.09307033162972	1.329612602996614	-19.00244550537569	0.05646950552775624	-0.1032472237796369	0	0	0	-13.49371771910041	0	90.1832820780576	-0.1032472237796369	0	0
